<svg xmlns="http://www.w3.org/2000/svg" viewBox="0 0 199 169.2">
  <path fill="#FFF" fill-rule="evenodd" d="M46.6 159.2v-49.3h73l.6-9.9c2.8-.2 5.5-.3 8.6-.5.5-7.4.5-14.8 1.8-22.1 1.8-10.8 4.4-21.5 6.9-32.2.8-3.5 3-5.9 7.2-4.9 1.2-8.5 2.4-16.8 3.4-24-5.9-4.9-7.6-10.1-26.7-11.7 3.5-3.2 6.9-4.9 11.2-2.9 5.1 2.5 10.2 5 15.6.6 1.3 13.1 2.4 25.6 3.7 38.5 4.9-1.2 7.2 1.7 8 5.7 2.5 11.9 4.9 23.9 6.9 35.9.9 5.6.9 11.4 1.3 17.4h9.5v68c-1.4.1-2.8.2-4.3.2H26.4c-.9 0-1.9.2-2.7-.1-.7-.2-1.3-.9-1.9-1.4.6-.5 1.1-1.4 1.7-1.6 4.2-.7 8.4-1.3 12.6-1.9.6-.1 1.6-.1 1.7-.3 1-4.9 5.5-2 8.8-3.5zm39.4-7.6c0-9.4.1-18.2-.1-27.1 0-1.2-1.1-2.9-2.2-3.4-4.7-2.4-9.6-2.6-14.3-.1-1 .5-2.2 1.9-2.2 2.9-.2 9.2-.1 18.3-.1 27.7H86zm29 .1c0-9.5.1-18.5-.1-27.5 0-1.1-1.3-2.7-2.5-3.2-4.6-2.3-9.3-2.2-13.9 0-1 .5-2.3 1.6-2.3 2.4-.2 9.4-.1 18.9-.1 28.4 6.5-.1 12.3-.1 18.9-.1zm37.2-10.7c0-7.6.2-14.8-.2-22-.1-1.3-2.3-3.2-3.8-3.4-1-.2-3.4 2-3.4 3.2-.3 7.3-.2 14.7-.2 22.2h7.6z" clip-rule="evenodd"/>
</svg>