<svg xmlns="http://www.w3.org/2000/svg" viewBox="0 0 199 169.2">
  <path fill="#FFF" fill-rule="evenodd" d="M16.3 42.6c7.7-3.7 15.5-7.4 23.1-11.2 19-9.4 37.9-18.9 57-28.2 1.6-.8 4.1-1 5.6-.3 26.2 12.9 52.4 25.9 78.6 38.9.6.3 1.2.7 2.1 1.2-2.2 4.5-4.4 8.9-6.8 13.7-1.6-.7-3.1-1.4-4.5-2.1C148.6 43.3 125.7 32 103 20.5c-2.5-1.3-4.4-1.2-6.9.1C73.3 32 50.4 43.3 27.6 54.7c-1.4.7-2.7 1.3-4.3 2-2.4-4.5-4.7-8.9-7-13.3v-.8zm160.8 77.1c0-4 .1-8 0-12.1 0-7.2-2.7-10.4-10-11.2-29.3-3-58.7-6-88.1-8.9-4.8-.5-7 1.6-7 6.4-.1 5.2 0 10.4 0 16-8.1 0-15.7-.1-23.3 0-3.7.1-5.9 2.3-5.9 5.6.1 3.6 2.2 5.2 5.5 5.6 1.1.1 2.2.1 3.3.1h125c.3-.7.5-1.1.5-1.5zM34.5 81.5c0-1.5.1-3.1-.3-4.5-.9-3.2-3.2-4.9-6.5-4.6-3.3.3-5.3 2.2-5.7 5.6-.1 1-.1 1.9-.1 2.9v81.6c0 1.3.1 2.7.2 4.1h12.5v-23.4h129.9v23.5h12.1v-35.9H34.4c.1-16.8.2-33 .1-49.3zm19.5-.4c-6.2 0-11.4 5.1-11.5 11.3-.1 6.4 5.2 11.7 11.6 11.6 6.2-.1 11.3-5.3 11.3-11.5 0-6.1-5.2-11.3-11.4-11.4z" clip-rule="evenodd"/>
</svg>