<svg xmlns="http://www.w3.org/2000/svg" viewBox="0 0 199 169.2">
  <path fill="#FFF" d="M99.5 82.7c18.8 0 34.1-18.5 34.1-41.4 0-22.8-5-41.4-34.1-41.4-29 0-34.1 18.5-34.1 41.4s15.3 41.4 34.1 41.4zm64.2 61.5c-.6-39.8-5.8-51.1-45.6-58.3 0 0-5.6 7.1-18.6 7.1-13 0-18.6-7.1-18.6-7.1-39.3 7.1-44.9 18.3-45.6 57l-.1 3v4.2s9.5 19.1 64.3 19.1 64.3-19.1 64.3-19.1V147l-.1-2.8zm-16.9-68.9c15.3 0 27.7-15 27.7-33.6s-4.1-33.6-27.7-33.6c-4 0-7.4.4-10.3 1.2 5.4 10 6.2 22.2 6.2 32 0 11-3 21.6-8.5 30.3 3.7 2.4 8 3.7 12.6 3.7zm52.1 50c-.5-32.3-4.7-41.5-37-47.4 0 0-4.5 5.8-15.1 5.8h-1.3c6.7 3 12.9 7.3 17.4 13.5 7.8 10.7 9.6 25.1 10 46.2C194.5 139 199 130 199 130v-2.5l-.1-2.2zm-146.7-50c4.5 0 8.8-1.3 12.6-3.7-5.5-8.7-8.5-19.2-8.5-30.3 0-9.7.7-21.9 6.2-32-2.9-.8-6.3-1.2-10.3-1.2-23.6 0-27.7 15-27.7 33.6.1 18.6 12.5 33.6 27.7 33.6zm1.3 8.4h-1.3c-10.6 0-15.1-5.8-15.1-5.8C4.8 83.7.6 92.9.1 125.3c0 2.1-.1 2.4-.1 2.2v2.5s4.5 9 26.2 13.3c.4-21.1 2.2-35.5 10-46.2 4.5-6.2 10.6-10.4 17.3-13.4zm0 0"/>
</svg>