<svg xmlns="http://www.w3.org/2000/svg" viewBox="0 0 199 169.2">
  <path fill="#FFF" fill-rule="evenodd" d="M195.8 35.9c-4.6-4.6-8.9-9.4-13.3-14.1-2.1-2.2-3.9-5.3-6.5-6.4-2.6-1.1-6.1-.3-9.1-.3H151V9.4c-.1-3.2-1.4-4.5-4.5-4.6-3.4-.1-6.8-.1-10.2 0-3 .1-4.3 1.6-4.4 4.7-.1 1.9 0 4.1 0 6.1H65.7V9.5c-.1-3-1.3-4.5-4.4-4.5-3.3-.1-6.6-.1-9.9-.1-3.3 0-4.6 1.6-4.7 4.8v5.8h-2.8c-6.9 0-13.7-.3-20.6-.2-1.1 0-2.4.5-3.1 1.2-6.3 6.7-12.4 13.5-18.8 20-2 2.1-1.9 4.1-1.5 6.5 1.3.1 2.8.2 3.8.3v115.1c0 .9-.1 1.9.1 2.8.2 1.8 1.3 2.9 3.1 3.2.9.1 1.8.1 2.8.1h178.6c5.4 0 6.5-.7 6.5-6.1v-115c1-.1 2.4-.3 3.5-.4.5-2.9-.4-5-2.5-7.1zM28.7 61.5h15v15h-15v-15zm15 78h-15v-15h15v15zm68.5 17H84.7v-35.3c0-3 .3-6 .5-9 .1-1 .9-2.4 1.7-3 7.7-5.1 15.9-5 23.7 0 .7.5 1.6 1.4 1.6 2.2v45.1zm3.5-78.7c0 .3-.1.7-.2.7H82.3c-.1 0-.2-1.1-.2-1.8V55.3c0-1.4.4-2.2 1.7-2.8 10.2-4.9 20.3-4.9 30.4.1.7.4 1.5 1.3 1.5 2.1.1 7.8 0 15.4 0 23.1zm53 61.7h-14v-15h14v15zm0-63h-14v-15h14v15z" clip-rule="evenodd"/>
</svg>