<svg xmlns="http://www.w3.org/2000/svg" viewBox="0 0 200 188.5">
  <path fill="#F7931E" d="M134.5 42.6c-.5.8-1.3.6-1.9.5-5.3-1.1-10.7-2.2-16-3.2l-1.7-.3.2-1.6.1-.3 17.4 1.2c2.5.1 3.2 1.6 1.9 3.7zM79.8 9.3c-1 .8-1.9 1.3-.6 2.8 3 3.4 6 6.8 8.9 10.2.2-.6.3-1.2.3-1.3 0-.1.7-1.4.7-1.4-2.2-3.3-4.4-6.7-6.6-10-.9-1.6-1.7-1.1-2.7-.3zm-6.9 7c-.7 1-1.4 1.4-.4 2.1 4.5 3 10.8 6.8 13.8 9.8l.8-1.1.2-1.1c-3.5-3.1-7.5-7.1-10.9-10.1-2.1-2-1.7-2-3.5.4zm55.3-.3c-.8-.9-1.3-2-2.8-.7-3.9 3.5-7.9 7-11.9 10.4l.1.5.3 1.8c4.7-3.1 9.3-6.2 14-9.3 1.6-.9 1.1-1.7.3-2.7zm-12.9 13.8l1 .3.2 1.2c5.1-1.7 10.3-3.5 15.5-5.2 1.2-.4 1.5-.9.9-2-.2-.3-.3-.6-.4-.9-.4-1.4-1.1-1.5-2.3-.9-5 2.5-10 5-15 7.4l.1.1zm3.2 3.5c-.8.1-1.5.3-2.2.4l-.3 1.9v.1c.9-.1 1.7-.1 2.6-.2 5-.3 10.1-.7 15.1-1 1.2-.1 1.6-.5 1.3-1.7-.1-.4-.1-.9-.1-1.3-.1-1.2-.7-1.4-1.8-1.2-4.9 1.1-9.8 2.1-14.6 3zM70.7 46.9c-3 1-2.9 1-1.6 3.8.5 1 .9 1 1.8.6 5-2.5 10-4.9 15-7.4l-.4-2c-4.9 1.6-9.9 3.3-14.8 5zM123 10.7c-.6-.9-1.5-1.7-2.6-2-1-.3-1.3.9-1.7 1.5-2.4 3.5-4.7 7-7.1 10.5l1.1 2.5 9.6-10.8c.4-.5 1.2-1 .7-1.7zM88.1 4.6c-.3.2-.6.3-.9.4-1.4.4-1.5 1-.9 2.3 1.7 3.4 3.4 6.8 5 10.2l.1-.1 1.7-1.7.5-.1c-1.1-3.4-2.3-6.8-3.4-10.2-.4-1.1-1-1.4-2.1-.8zm25.5.2c-1.4-.6-1.8-.2-2.2 1.1-1.2 3.6-2.4 7.1-3.6 10.7l1.5 1.8.4.4c1.7-3.5 3.5-7.1 5.2-10.6 1.1-2.4 1.1-2.3-1.3-3.4zM68.8 23.7c-.5.9-.9 1.8.7 2.3 5.2 1.7 10.4 3.6 15.6 5.4l.6-.9.5-.8c-5.1-2.5-10.1-5-15.2-7.5-1.8-1.1-1.7.7-2.2 1.5zm62.9 23.7c-5.7-1.9-11.4-3.9-17-5.8l-.2 1.9c5.3 2.6 10.5 5.2 15.8 7.8 1.7.9 1.9-.4 2.4-1.4.5-1.2.6-2-1-2.5zm-46.6-7.7l-.4-2-9.1.6c-2.6.2-5.1.3-7.7.5-1.6.1-1.7.5-1.5 2.8.1 1.3.6 1.7 1.9 1.4 5.8-1.1 11.3-2.2 16.8-3.3zM96.4 2.6c-1.3.2-2.4.3-2 2.2l2.1 10.3 1.3-.5 1.5-.1-.6-10.2c-.1-1.6-.9-2-2.3-1.7zm8.3-.1c-1.7-.3-1.6.8-1.6 1.8-.2 3.5-.5 7-.7 10.4l2.7.5 2.1-10.4c.3-1.8.2-1.8-2.5-2.3zM68 34.4c3.7.2 7.3.5 11 .8 1.8.1 3.6.2 5.5.4l-.2-1 .3-1c-5.3-1.1-10.6-2.1-15.9-3.3-2.6-.6-1.7 1.4-2.1 2.5-.7 1.4.3 1.5 1.4 1.6z" opacity=".7"/>
  <path fill="#F7931E" d="M11.5 177.5c-1.7 0-3.2-.5-4.5-1.4-1.3-.9-2.2-2.2-2.7-3.9l3.8-1.6c.3 1 .7 1.7 1.3 2.2s1.3.7 2.2.7c1 0 1.7-.3 2.2-.9s.8-1.5.8-2.6v-15h4.1v14.9a7.63 7.63 0 0 1-2.1 5.5c-.6.6-1.4 1.1-2.3 1.4-.9.6-1.8.7-2.8.7zm19.7-22.3h4.7l8.2 21.9h-4.5l-1.8-5.2h-8.4l-1.8 5.2H23l8.2-21.9zm5.2 12.8l-2-5.5-.8-2.7h-.2l-.8 2.7-2 5.5h5.8zm12.7-12.8h4.1V177h-4.1v-21.8zm11 0h4.8l8.8 14.6h.2l-.2-4.2v-10.4h4.1V177h-4.3l-9.3-15.5H64l.2 4.2V177h-4.1v-21.8zm24.5 0H92c1.7 0 3.3.3 4.7.8s2.6 1.3 3.5 2.2c1 1 1.7 2.1 2.2 3.5a12.73 12.73 0 0 1 0 8.9 9.1 9.1 0 0 1-2.2 3.4c-1 1-2.2 1.7-3.5 2.2-1.4.5-2.9.8-4.7.8h-7.4v-21.8zm7.2 17.9c1.2 0 2.3-.2 3.2-.5a5.94 5.94 0 0 0 3.7-3.6 8.8 8.8 0 0 0 0-5.8 5.94 5.94 0 0 0-3.7-3.6c-.9-.3-2-.5-3.2-.5h-3.1v14h3.1zm15.9-17.9h4.1v8.7h9.2v-8.7h4.1V177H121v-9.2h-9.2v9.2h-4.1v-21.8zm29.4 0h4.7l8.2 21.9h-4.5l-1.8-5.2h-8.4l-1.8 5.2H129l8.1-21.9zm5.3 12.8l-2-5.5-.8-2.7h-.2l-.8 2.7-2 5.5h5.8zm11.4-12.8h8c1.1 0 2.1.2 3 .5.9.3 1.7.8 2.3 1.4a6.63 6.63 0 0 1 2 5 5.85 5.85 0 0 1-1.4 3.8c-.4.5-.9 1-1.5 1.4-.6.4-1.2.7-1.8.9v.2l5.9 8.4v.2h-4.7l-5.6-8.2h-2v8.2h-4.1v-21.8zm8 9.8c.9 0 1.7-.3 2.3-.9.6-.6.9-1.3.9-2.2 0-.4-.1-.8-.2-1.1-.1-.4-.3-.7-.6-1-.3-.3-.6-.5-1-.7-.4-.2-.9-.3-1.4-.3H158v6.1h3.8zm12.2-9.8h4.1l6.7 11.6h.2l6.7-11.6h4.1V177h-4.1v-10.8l.2-3.7h-.2l-5.6 9.8h-2.5l-5.6-9.8h-.2l.2 3.7V177h-4v-21.8z"/>
  <path fill="#F15A24" fill-rule="evenodd" d="M3.5 183.6h193.1v1.5H3.5zm156.9-57.2l1.9-2.8c1.2-2.1 1.8-4.3 1-6.7-1-3.1-3-5.3-6.2-6.1-1-.3-2.1-.4-3.2-.5-2.8-.4-5.7-.9-8.5-1.3-2.4-.4-4.9-.5-7.3-1-2.3-.4-4.6-1.1-6.9-1.7-.2-.1-.5-.1-.7 0-2.8 1.3-5.8 2.2-8.8 2.9-.3.1-.7 0-1-.1 1.7-.6 3.3-1 5-1.6 2.4-.8 4.8-1.8 7.2-2.7.9-.4 1.9-.7 2.7-1.3 1.2-.8 1.5-2.3 1.8-3.6.5-2.5.9-5 .7-7.6-.2-3.3-.3-6.5-.4-9.8-.2-3.8-.3-7.7-.5-11.5-.1-3.3-.5-6.6-1.5-9.8a6.9 6.9 0 0 0-4.3-4.5c-2-.7-4-1.2-6-1.7L114 51.7c-1.2-.3-2.2-.9-2.3-2.3-.1-.7-.1-1.4-.2-1.9.8-.2 1.7-.2 2-.7.8-1 1.4-2.1 1.5-3.5.1-1.8.4-3.5.7-5.2.3-1.6.8-3.2 1.1-4.8.4-1.7-.3-3.4-1.6-3.9-.6-.2-.8-.6-.8-1.1-.3-1.7-.4-3.4-1-5-.8-2.3-1.8-4.4-3.7-6a9.73 9.73 0 0 0-5.6-2.6c-1.8-.1-3.6-.5-5.5-.2-4.6.7-8.5 2.3-10.4 7C87 24 86 26.7 86 29.7c0 .1-.1.3-.2.4-1.4.8-1.9 2.2-1.7 3.7.2 2.1.6 4.2 1 6.3.3 1.6.8 3.2.6 4.9-.1.7.2 1.5.5 2 .5.9 1.5.9 2.5.5-.4 1.6-.6 2-1.9 2.7-1.5.8-3.1 1.6-4.7 2.1-2.8 1-5.6 2.1-8.2 3.6-1.8 1-3.8 2-5.6 3-.8.5-1.6 1-2.3 1.6-.5.4-1.1.9-1.2 1.4-.3 1.8-.7 3.6-.7 5.4 0 2.9.3 5.8.4 8.7.1 2.3.1 4.6.1 6.9 0 3-.1 6.1-.1 9.1 0 2.8.2 5.5.4 8.3 0 .6.3 1.2.7 1.7 1.2 1.5 2.6 2.8 4.5 3.3.7.2 1.4.4 2.3.6-1.6.3-3 .6-4.4.8-2.5.4-5.1.8-7.6 1.3-2.7.4-5.4 1-8.1 1.3-3.4.4-6.7.9-9.8 2.4-1.6.8-2.5 2.1-3 3.7-.3.9-.4 1.9-.6 2.9-.5 2.4-.5 4.7.7 7 .5.9 1 2 1.4 3-1.4 1.1-2.9 2.1-4.2 3.2-.5.4-1 1-1.1 1.5-.1 2.8 0 5.5-.1 8.3 0 .9.4 1.2 1.1 1.2h8.5c4.1 0 8.1 0 12.2.1 5.7 0 11.4.1 17.1.1 8 0 15.9 0 23.9.1h8.5c5.9 0 11.9-.1 17.8-.1 4.8 0 9.5.1 14.3.1 4.7 0 9.3.1 14 .1 2.7 0 5.3 0 8-.1.1-.2.1-4.2.1-4.3-.1-3.1-.1-2.2-.2-5.3 0-.2-.1-.4-.2-.5-.6-.6-1.1-1.2-1.7-1.8-.7-.7-1.4-1.5-2.3-2.4 1.8 0 2.8-.9 3.7-2.1zm-24-15.5c1.7-.1 3.3-.2 5-.2 1.3 0 2.6.3 3.7 1 .2.1.4.2.6.2l.3-.3-1.4-1.4c1.8.5 3.4.9 5.1 1.4.4.1.6.6.9 1-.5.3-.9.8-1.4.9-1.6.2-3.2.2-4.8.4-2.8.3-5.6.6-8.5.1-1.1-.2-2.2-.2-3.4-.3-.1-.7.3-1.1.7-1.7.9-1 2.1-1 3.2-1.1zm-28 20.7c.1-1.6.1-1.6 1.8-1.6l13.3-.3c3.7 0 7.3.1 11 .1 4 .1 8 .1 12 .3.9 0 1.7.8 2.6 1.2 0 .1-.1.2-.1.3l-40.5.3c-.1-.2-.1-.2-.1-.3zm-9.2-3.6c-1.6.2-3.1.2-4.7.3-.5 0-.9.1-1.4.2v-.3c.8-.1 1.7-.3 2.5-.4 2.4-.3 4.9-.4 7.3-1 3-.7 5.7-2.1 8.1-4.2 1.1-1 2.6-1.5 3.9-2.2.2-.1.4 0 .6 0-1.2.7-2.2 1.3-3.3 2-1.2.8-2.2 1.7-3.4 2.5a23.1 23.1 0 0 1-9.6 3.1zm33.3-17.7c.2.2-.2.8-.3 1.4-.7-.8-1.3-1.4-1.9-2 .9-.2 1.7-.1 2.2.6zm-9.1-35.4c.1-1.1.5-2.1 1.4-2.8 1.6-1.2 3.3-.6 3.4 1.4.1 2.6 0 5.2-.1 7.8 0 1.8-.1 3.6-.2 5.4-.1 2.8-.1 5.6-.3 8.5-.1 1.6-1 2.8-2.2 3.9-3 2.8-6.5 4.5-10.2 6.1-2.2.9-4.4 2.1-6.9 1.6-1.1-.2-2.2-.6-3.3-.9.1 1.7.1 1.6-1.8 2.1-1.5.5-3.1.6-4.7.5-1.9 0-3.7.1-5.6 0-1 0-2.1-.3-3.1-.6-.5-.1-.8-.6-1.2-1 0-.1.1-.1.1-.2l2 .3c.7.1 1.1-.1 1.3-.8 0-.1.1-.3.1-.4.1-.8.5-1 1.4-1 2.5 0 5.1-.3 7.6-.5.9-.1 1.8-.1 2.7-.2.2 0 .4-.1.5 0 .8.8 1.4.1 2.1-.2 1.3-.4 2.6-.6 3.9-.9 1.5-.4 3.1-.8 4.6-1.3 1.7-.7 2-1.2 1.6-2.7-.1-.5-.6-.9-.9-1.3.8-.5 1.7-1.1 2.6-1.7 1.6-.9 3.2-1.8 4.8-2.5.8-.4 1.8-.5 2.7.2.1.1.4.1.7.1-.5-1.2-1.6-1.6-3.5-1.2.1-3.1.2-6.2.2-9.3 0-.9-.1-1.8-.2-2.6-.1-1.8.2-3.8.5-5.8zm-50 35.6c.2-.1.4-.2.6-.2.6 0 1.2 0 1.7-.1 2.3-.2 4.5-.3 6.8-.5 1.8-.2 3.5.5 5.2.8 1 .2 2.1.3 3.1.5s2 .2 2.6 1.2c.5.8.3 1.3-.6 1.5-3.2.4-6.3-.1-9.5-.5-2.7-.4-5.5-.5-8.2-.7-1.7-.1-3.4-.3-5-.3-1.2 0-2.5.1-3.6.5-.6.2-1 .3-1.5.1-.3-.1-.7-.3-.7-.4.1-.4.2-1 .5-1.2 1.8-1.3 3.9-1.6 6-1.2.8.2 1.4.8 2.2 1.2.3.1.5.3.8.5l.2-.2c-.3-.4-.4-.7-.6-1zm8.5-3.1c-1.1-.1-1.3-.8-1.5-1.5 1.1-.1 1 .9 1.5 1.5zm-.4-3.4c1.5 0 2.8.4 3.8 1.6.2.3.7.5 1.1.7.5.2 1.1.3 1.6.5.1 0 .2.1.3.2.5.7 1 1.5 1.6 2.2.1 0 .2-.1.2-.1l-.3.9c-3.8.3-8.8-3.3-8.3-6zm7.5 1.8c.3-.3.6-.7.9-.7.6-.1 1.3 0 2.2 0-.3.6-.4 1.3-.7 1.4-.7.1-1.5 0-2.2-.1-.1-.2-.2-.5-.2-.6zm12.2-8.7c-1.4.2-1.6.5-1.5 2.2-1.6 0-3.3.1-4.9 0-1.6-.1-3.3-.5-4.9-.7-.9-.1-1.9-.2-2.8 0-1.3.2-2-.4-2.1-1.3-.3-2.2-.6-4.5.5-6.7.1-.3 0-.8-.2-1.1-.8-1.3-1.1-2.8-1.3-4.2-.2-1.3.2-2.5.9-3.5.2-.3.7-.5 1.2-.7 3.8-1.7 7-4.2 9.7-7.4.2-.2.4-.5.7-.7v-.1h.1l-.1.1c.6.8 1.1 1.6 1.6 2.4l.1.1c1.4-.1 2.6 1 4.2.4 1.1-.4 2.4-.4 3.7-.4.4 0 1.1.4 1.3.9 1.8 3.3 2 6.7.7 10.1-.4 1.1-.9 2.1-1.4 3.1-.2.5-.1.8.3 1.2.5.5.9 1.3 1.1 2.1.3 1.3.6 2.6.5 3.8 0 1.1-.5 2.3-.9 3.6-1.5-1.4-1.5-1.4-4.3-1.5-.5-1.3-1.2-1.8-2.2-1.7zm.8.7v1.1h-.7c.1-.4.1-.7.2-1.1h.5zM96.7 72c.4-.5.8-.9 1.1-1.3h.2c0 .5-.1 1-.2 1.7-.4-.1-.7-.2-1.1-.4zm1.5 1.7c2.6.8 4 .4 4-3.1.8.8.9 1.4.2 2-.8.7.2.8.4 1.1-.3.9-1 .6-1.9.4.3.5.5.8.7 1.1-.7.7-1.1.6-1.7-.3-.5.1-1.1.3-1.5.2-.8-.4.2-1-.2-1.4zm1-.9c.7.5 1.5.1 2.2-1 .1.8-.3 1.3-.8 1.6-.5.3-1.8 0-2.1-.5-.3-.5-.3-1.6.1-2 .3-.4.6-.8 1-1.4.8 0 1.6.2 1.7 1.3-.4-.2-.7-.5-1-.7-.4-.3-.9-.2-1.2.2-.4.9-.4 2.1.1 2.5zm12.7 26.8c.8-.2 1.6-.5 2.4-.6.6 0 1.1.2 1.7.5-2.7 1.4-5.4 2-8.4 2.2v-1.1c1.4-.3 2.8-.7 4.3-1zm-5.1 1c0 .7-.1 1.6-.5 1.9-.8.5-1.8.5-2.8.7v-2.5c.8-.3 1.6-.6 2.5-.7.2-.1.8.4.8.6zm10.6-12.8h.4c-.1 1.7-.1 3.5-.2 5.2-.3-1.8-.6-3.5-.2-5.2zm3.7-9.8c.1 3 .3 2.5.3 3.7.1 3.4 0 6.8.1 10.2 0 1.1-.2 2-1.3 2.4-.4.1-.7.2-1.3.5-.4-5.8.3-10.8 1.8-16.8h.4zM111 47.1c-.1 1.5-.2 3 .6 4.2-.7-.2-1.2-1.5-1.3-3.1 0-.4-.1-.9.7-1.1zm-7.3-18.2c.1 0 .4 0 .5.1.2.2.3.5.5.8h.3c-.1 0-.1 0-.2.1v-.1c-.3 0-.6 0-.9-.1-.1 0-.3-.2-.3-.4-.1-.1 0-.4.1-.4zm0-.7c-.1-.8.5-.8 1.1-.9 1.6-.2 2.2 0 2.6.9h-3.7zm2.2 2.3c.6.4 1 .7 1.4 1 .5.3 1.3 1.6 1.1 2.2-.4 1.8-1.3 3.4-2.5 5.2-1-1.7-1.9-3.1-2.6-4.7-.6-1.3-.4-2.7-.1-4 1.1.1 2 .2 2.7.3zm1.7-3.6c-.8-.2-1.3-.4-1.9-.4-.5 0-1.1.1-1.7.2.5-.7 1.2-.9 1.9-.8.6.1 1.3.2 1.7 1zm-3-11.7c-.5 1.3-1.1 2.5 1 3-1.1.2-1.5-.3-1.8-.9-.3-.5 0-1.4.8-2.1zm-6.7 1.1c.3-1.3.5-1.5 1.9-1.6 1.3-.1 2.5.5 2.8 1.3.3.9-.3 1.8-1.3 1.8.9-.7 1.1-1.2.7-1.8-.4-.4-.8-1-1.4-.6v1.4s-.6.1-.8 0c-.7-.5 0-.9.2-1.4-.5-.3-.8 0-1 .4-.3.9.1 1.6 1.3 2.2-.5-.1-1-.1-1.4-.2-.9-.1-1.2-.6-1-1.5zm-4.9.2c.9-.4 1.8-1.1 2.9-.7.7.3 1 .9 1 1.6 0 .6 0 1.1-.6 1.2 0-.5.2-1.1 0-1.5-.2-.4-.7-.8-1.1-1.1-.1.1-.2.1-.3.2 0 .3.1.6.1.9 0 .3.1.6 0 .9 0 .1-.6.3-.6.2-.2-.2-.3-.6-.4-.9 0-.2.1-.4.1-.7-.7.1-.8.6-.7 1 .1.5.4 1 .8 1.2.4.2.9 0 1.4 0v.2c-.7.1-1.5.2-2.2.1-.4-.1-1-.5-1-.8 0-.6-.3-1.4.6-1.8zm-2.6 2.1c.1 0 .1.1.2.1-.1.3-.3.6-.4 1l.2.2c.3-.3.7-.5.9-.9.1-.3 0-.8 0-1.1.4.5.5 1.2.1 1.6-.5.4-1.2.6-1.8.9-.1-.1-.1-.2-.2-.3.2-.6.6-1 1-1.5zm-3.7 10.8c.2-2 .7-3.9 1.1-5.8 0-.1.2-.2.3-.3.9-.2 1.4-.8 1.5-1.6.1-.9.8-1.2 1.4-1.4.6-.2 1.1-.4 1.2-1.2 1.7 1.2 3.4.3 5 0 1.8-.3 3.7-.5 5.6-.5.8 0 1.8 0 2.1 1.1.6 1.6.5 2.5-.6 3.3-1.2.8-1.9 2.1-2.9 3-1.4 1.4-1.2 3-1.3 4.7-.1 1 0 1.9-.1 2.9-.1 1.1-.7 1.7-1.8 1.7-.4 0-.8.2-1.3.3.4.2.8.4 1.1.7.3.2.5.6.7.9.1.1.2.3.3.5.1-.4.2-.7.4-1 .3.5.5.8.6 1.1-1.2.2-2.3.5-3.5.7-.2 0-.5-.1-.7-.2-.2 0-.6-.1-.7 0-.1.1-.1.5 0 .7.1.2.3.3.5.3s.4-.1.7-.1c.1.1.1.2.1.3.2 1.3.7 1.6 2 1.4.7-.1 1.4-.3 2.2 0 .8.3 1.4.7 1.4 1.6 0 .7-.8 1.7-1.5 1.9-1.2.2-2.4.5-3.6.6-.5 0-.9-.2-1.4-.3-.3-.1-.6-.1-1-.2l.3.9c.1.1.2.2.5.4-1.3.1-2.4 0-3.3-.7-.8-.6-1.5-1.4-2.3-2-2-1.6-1.7-3.8-2-5.9-.3-1.8-.4-3.7-.6-5.5.1-.8-.5-1.6-.4-2.3zm13.5 10.2c0 .1-.3.3-.6.4-.4.1-.8.2-1.2.2-1 .2-1.4-.1-1.2-1.2.6-.1 1.2-.3 1.8-.3.3 0 .6 0 .8.2.2.2.4.5.4.7zm-11.7 3.6c-.9-.4-.9-.5-.7-2.5.2.8.4 1.6.7 2.5zm-1.1-3.9h-.2c-.4-2.2-1.5-4.3-.6-6.6.2 2.2.5 4.4.8 6.6zm.1 7.1c-.3 0-.7-.5-.8-.8-.2-1.2-.3-2.4-.5-3.6-.4-2.2-.9-4.3-1.3-6.5-.2-.9-.1-1.9 0-2.8 0-.9.6-1.5 1.5-2.2 0 .5.1.8 0 1-1.3 1.7-.9 3.6-.5 5.5.3 1.7.6 3.5 1 5.2.1.5.4 1 .6 1.4.3.5.7.6 1.3.5.1 0 .3.1.3.2 0 .5.1 1.1-.1 1.4-.5.3-1.1.6-1.5.7zm-16.5 58c-2.7-.8-4.4-2.3-5.1-5.1-.4-1.8-.1-3.6-.1-5.3v-9.5c0-2.5 0-5.1-.1-7.6-.1-2.7-.3-5.4-.5-8.1-.1-2.3.2-4.5 1.1-6.7.1-.2.3-.4.5-.5.9-.6 1.8-1.1 2.7-1.6 2.6-1.4 5.1-2.8 7.8-4.1 2.3-1.1 4.8-2.1 7.1-3.1 1.5-.7 3-1.3 4.3-2.2.5-.3.8-1.3.9-2 .2-.8.1-1.7.1-2.4.6.5 1.3 1 1.9 1.6 1.6 1.6 3.6 2.3 5.8 2.6 1 .1 1.9.1 2.9.3.3 0 .7.4.7.6 0 1-.2 1.9-.3 2.9-.1.5-.2.9-.2 1.3 1.4-.3 2.8-.5 4.1-.8v.3c-.9.3-1.8.6-2.9 1 .3.2.4.3.5.3 1 .1 2 0 2.9.2.5.1.9.4 1.3.6 1.5 1 3.2 1.2 5 1.3 1.8.1 3.7.3 5.5.4.6 0 1 .3 1.1.9.3 1.1.5 2.3.9 3.4.8 2.3.6 4.6.4 6.9-.1 1.1-.6 2.3-.9 3.4-.1.3-.2.5-.3.8-.7 2.1-.4 1.7-2.5 2-1.7.2-3.5.2-5.3.1-.9 0-1.5-.5-2.1-1.2-1.2-1.5-2.6-2.9-3.9-4.4-1.3-1.5-2.7-2.8-3.2-4.7 0-.1-.3-.3-.5-.3s-.5.2-.5.3c-.2 1.7-1.5 2.7-2.5 3.8-1.3 1.5-2.8 2.9-4.3 4.2-1.4 1.3-2.9 2.4-4.5 3.6-.4.3-1 .4-1.5.4-1.7 0-3.5-.1-5.2-.2-1.4-.1-2.1-1.1-2.9-2.1-.7-.9-1.3-1.9-1.9-2.9-.2-.3-.5-.4-.8-.6-.1.3-.3.6-.3.9-.2 2.9-.5 5.8-.6 8.7-.1 1.9-.1 3.8-.1 5.7v6.8a6.7 6.7 0 0 0-4.1 2.5c0 .1.1.1.1.2.2-.1.4-.1.6-.2 1.2-.9 2.4-.7 3.4.2 1.8 1.7 4.2 2 6.3 3.1 1.6.8 2.7.5 4-.4 1-.6 2.2-.7 3.4-.4 2.9.6 5.8 1 8.8.8 2-.2 3.9-.4 5.9-.7.1 0 .2 0 .3.1l-1.5.6c.1.9.1 1.9.2 2.9-.5.1-.9.1-1.3.2l-7.8.9c-1.1.1-2.3.1-3.4.3-2.8.4-5.3-.9-8-1.2-1.5-.1-1.9.2-1.8 1.7v.4c-.3-.1-.6-.1-1-.2.2.7.3 1.4.5 2.2-2.3-.8-4.8-.8-6.9-2.2-.6-.4-1.4-.5-2.2-.7zm12.6-7.6c-2-.7-2.5-2.2-2.7-4-.3-2.7-.1-5.4.2-8.1.2-1.9.2-3.7.4-5.7.3 1 .7 2 .8 3 .3 1.8.5 3.6.7 5.4.2 2.8.4 5.6.5 8.3.1.4.1.7.1 1.1zm-43.7 24.5c.3-1.8.5-3.6 1-5.3.8-2.6 2.9-3.8 5.3-4.3 3.7-.8 7.4-1.4 11.1-2l10.7-1.8c1.4-.2 2.8-.4 4.3-.4.7 0 1.4.3 2.2.5.2.1.4.3.6.5 0 .1-.1.2-.1.2-1.3.2-2.6.4-3.9.5-.9.1-1.9-.2-2.8-.1-.8 0-1.6.2-2.3.6-1.1.7-2.4.5-3.6.8-1.9.4-3.8.5-5.7.2-1.1-.2-2.2.1-3.3.2-.2 0-.4.3-.6.5.2.1.4.3.6.3.9 0 1.8.1 2.7 0 2.1-.2 4 .4 5.9 1 2.1.7 4.2 1.5 6.4 2 2.7.5 5.4.7 8.2.7 2.4 0 4.8.2 7.2.3 3.5.1 6.9 1.1 10.4 1.5.9.1 1.8 0 2.6-.2.3 0 .6-.6.6-.9.2-.8.2-1.6.4-2.4.4-1.3 1.7-2.1 3.1-2 3.1.1 6.3.3 9.4-.3 1.3-.3 2.6-.8 3.8-1.2 1.9-.7 3.9-1.5 6-.8 1.5.6 2.9 1.3 4.4 1.9.3.1.5.1.8.2-.1-.2-.2-.5-.3-.8 1-1.1 3.5-1.4 4.8-.4.6.5 1.1 1 1.5 1.6.3.4.3.9-.2 1.4-.1-.4-.2-.6-.3-.9-.9.1-1.7.1-2.6.2-2.6.4-5.3.7-7.9 1.4-1.6.4-3.1 1.2-4.6 2-1.9 1-3.6 2.1-5.5 3.2-2.3 1.3-4.7 2.7-6.9 4.1-1.4.9-2.9 1.2-4.5 1.4-2.9.4-5.8.9-8.7 1.3-2.4.4-4.8.8-7.2 1-1.4.2-2.9.1-4.3.1-1.8 0-3.7-.1-5.5-.1-4.5-.1-8.9-.2-13.4-.4-1.5-.1-3-.5-4.5-.8-.2 0-.5-.1-.7 0-2 1.1-4.2 1.1-6.4 1.3-1.7.1-3.4 0-5-.7-1.8-.9-3.6-3.1-3.2-5.1zm47.4 9.6c.3.9 0 1.2-.9 1.2-2.9 0-5.9.1-8.8 0-4.4 0-8.8 0-13.2-.1-2.1 0-4.1-.1-6.2-.1-3.3 0-6.7.2-10 .2-1 0-2-.1-3.1-.2.6-.7 1.1-1.4 1.6-2 .2-.2.6-.3.9-.3 1.5 0 3 .1 4.5.1 1.3 0 2.6.1 3.9.1 3.5 0 7.1.1 10.6.1 2.5 0 5 .1 7.5 0 3.3-.1 6.7-.2 10-.4 1.8-.1 3.5-.4 5.3-.5-.9.3-1.7.5-2.6.8.2.5.4.8.5 1.1zm-45-1.8c.1-.1.2 0 .4 0 1 .2 2.1.4 3.3.7-.3.4-.6.6-.7.9-.5 1.2-1.5 1.4-2.7 1.3-1.3-.1-2.6 0-4 0 1.2-.9 2.4-1.9 3.7-2.9zm-5.2 12.1c0-2.5 0-5-.1-7.6h6.5c0 2.5 0 5 .1 7.6h-6.5zm49 .1c-14 0-27.9-.1-42-.1l.3-7.7c13.9 0 27.6-.3 41.3-.1-.3.8-.7 1.6-.6 2.3.1.7.6 1.4 1 2 .8 1.3.4 2.4 0 3.6zm23.1-3.8c-.3.8-.7 1.5-1 2.2-.2.5-.4 1-.6 1.6h-3.1c-.7-1.1-.3-2.1.2-3.1.5-.9 1.2-1.7 1.7-2.6.6-1.1.4-2-.6-2.8-1.2-1-2.5-1.6-4.2-1.5-2.3.1-4.5-.1-6.8-.1-1.1 0-2.2-.1-3.3 0-.4 0-.8.5-1.3.8-1.4.9-1.7 1.8-1.3 3.4.4 1.2.9 2.3 1.2 3.5.2.7.2 1.5.4 2.3h-2.9c.1-.6.1-1.1.2-1.7.2-.9-.1-1.7-.7-2.5-.1-.1-.2-.3-.3-.4-.8-1.2-.7-1.6.6-2.4.9-.5 1.2-1.4 1.1-2.4 0-.5-.1-.9-.1-1.6h3.8c1.9 0 3.9.1 5.8.1 2.3 0 4.6-.1 6.9-.2h.7c.6 0 1 .2.9.9-.1.3-.1.7-.1 1 0 .6-.1 1.1.8 1.3 1.5.7 2.7 2.4 2 4.2zm41 4c-13.5 0-26.9-.1-40.5-.1 1.7-2.4 3.1-4.9 1.2-7.9l39.5-.3c-.1 2.9-.2 5.5-.2 8.3zm9.5-8.2c.4 2.6.1 5.3.2 8-3.1 0-6 0-9 .1.1-2.7.3-5.3.4-8 2.6 0 5.4 0 8.4-.1zm-2.1-1.6c-2.4 0-4.6.1-6.8 0-.6 0-1.2-.8-1.8-1.2 0-.1.1-.2.1-.4h3.1c.9 0 1.8.2 2.7 0 1.3-.2 1.9.6 2.7 1.6zm-.6-5c-.1-.1-.1-.2-.2-.2 3.2-1.9 4.7-4.8 4.8-8.5h.4c.1.3.2.7.2 1-.2 2.9-1.6 5.1-3.9 6.8-.4.3-.8.6-1.3.9zm-41.6-52.2c.8 0 1.8-1.3 1.8-2.2 0-1.1-1.1-2.2-2.2-2.2-.9 0-1.6 1-1.6 2.3.1 1.4.8 2.1 2 2.1zm-1.2-3.1c.1-.2.5-.6.7-.5.6.2 1.1.7 1.2 1.4h-.9c0-.4-.1-.8-.1-1.2h-.3c0 .5-.1 1 0 1.5.1.2.6.3.9.5v.1c-.5-.1-1.3 0-1.5-.3-.3-.2-.1-1 0-1.5zM89.4 53c-.2-.1-.3-.5-.4-.8l.2-.2c2.8.9 5.6 1.8 8.4 2.6v.3c-.2.1-.4.3-.7.3-2.6 0-5.1-.8-7.5-2.2zm-4.1 21.8c1 0 2.1-1 2.2-2 0-1.2-1.1-2.4-2.5-2.4-.9 0-1.8 1-1.8 2.1.1 1.5.8 2.3 2.1 2.3zm-1.2-3.3c.1-.1.2-.3.3-.3.5.1 1 .1 1.4.4.4.2 1 .6.5 1.2-.3.4-.8.6-1.2.9-.2.1-.5.1-.9.2-.6-.9-.6-1.6-.1-2.4zM90 27.8c.9-.5 1.7-1.2 2.5-1.6.7-.3 1.4-.3 2.1.3-2.7.6-4.1 1.5-4.8 3.1.5.1 1 .1 1.3.3 1.1.5 2.2 1.1 3.3 1.6h.3c1 .1 1.7-.4 2.5-.9 1.4-.9 1.6-1.5 1.1-3 0-.1-.1-.2-.1-.3-.7-1.2-1.1-2.6-2.9-2.8-3-.4-4.7.8-6.2 2.8-.1.2 0 .5 0 .7.4-.2.7-.1.9-.2zm1.8 1.7v-.3c.4.1.8.1 1.3.3.4.1.9.3 1.4.5-1.1.4-1.9.1-2.7-.5zm3-1.5c0 .2-.2.4-.4.4-.5.1-1 0-1.5.1-.4.1-.9.2-1.5.4.5-1 2.2-1.7 3-1.3.2-.1.4.2.4.4zm2.3 5.8c-.3.5-.8 1-.8 1.5 0 .4.5.9.9 1.5-.6-.2-1-.3-1.4-.5-.2.4-.5.8-.8 1.1-.4-1.6 1.1-3.8 2.1-3.6zm-12.9 39c-.2-.2 0-.6 0-1l1.9 1.1c-.3.2-.6.5-.9.5-.4-.1-.8-.3-1-.6z" clip-rule="evenodd"/>
</svg>