<svg xmlns="http://www.w3.org/2000/svg" viewBox="0 0 49.7 50.5">
    <g fill="#f7931e">
        <path d="M19.1 32.5l-.8 4.6c-.1.6.2 1.3.7 1.6.5.4 1.2.4 1.8.1l4.1-2.2 4.1 2.2c.2.1.5.2.8.2.3 0 .7-.1 1-.3.5-.4.8-1 .7-1.6l-.8-4.6 3.3-3.3c.5-.4.6-1.1.4-1.7-.2-.6-.7-1-1.4-1.1l-4.6-.7-2.1-4.2c-.3-.6-.9-.9-1.5-.9s-1.2.4-1.5.9l-2.1 4.2-4.6.7c-.6.1-1.2.5-1.4 1.1-.2.6 0 1.3.4 1.7l3.5 3.3zm0 0"/>
        <path d="M44.7 5.4h-5.3v-3C39.4 1.1 38.3 0 37 0h-.4c-1.3 0-2.4 1.1-2.4 2.4v2.9H15.5V2.4c0-1.3-1.1-2.4-2.4-2.4h-.4c-1.3 0-2.4 1.1-2.4 2.4v2.9H5c-2.8 0-5 2.2-5 5v35.1c0 2.8 2.3 5 5 5h39.7c2.8 0 5-2.3 5-5v-35c0-2.8-2.2-5-5-5zM44 44.8H5.7V17.5H44v27.3zm0 0"/>
    </g>
</svg>